<?xml version="1.0" standalone="no"?>
<!DOCTYPE svg PUBLIC "-//W3C//DTD SVG 20010904//EN"
 "http://www.w3.org/TR/2001/REC-SVG-20010904/DTD/svg10.dtd">
<svg version="1.0" xmlns="http://www.w3.org/2000/svg"
 width="1450.000000pt" height="1450.000000pt" viewBox="0 0 1450.000000 1450.000000"
 preserveAspectRatio="xMidYMid meet">
<metadata>
Created by potrace 1.11, written by Peter Selinger 2001-2013
</metadata>
<g transform="translate(0.000000,1450.000000) scale(0.100000,-0.100000)"
fill="#000000" stroke="none">
<path d="M6554 14482 c3 -5 7 -71 10 -148 19 -458 63 -691 176 -922 26 -51 43
-95 39 -98 -9 -5 -291 3 -334 10 -16 2 -59 7 -95 11 -36 3 -72 8 -80 10 -8 2
-60 7 -115 11 -55 4 -118 8 -140 10 -55 4 -474 4 -560 0 -93 -5 -251 -16 -295
-21 -19 -2 -69 -7 -110 -10 -41 -3 -86 -8 -100 -10 -14 -2 -50 -7 -80 -10 -30
-3 -66 -8 -80 -10 -14 -2 -50 -6 -80 -10 -30 -3 -66 -8 -80 -10 -35 -6 -77
-13 -130 -20 -25 -3 -70 -10 -100 -15 -30 -5 -70 -12 -87 -15 -44 -7 -59 -9
-258 -45 -93 -17 -183 -34 -200 -36 -16 -3 -138 -28 -270 -56 -267 -55 -253
-52 -315 -67 -25 -5 -56 -12 -70 -14 -14 -3 -43 -10 -65 -15 -22 -6 -51 -13
-65 -15 -14 -3 -54 -12 -90 -21 -36 -9 -74 -18 -85 -21 -11 -2 -47 -11 -81
-19 -34 -8 -72 -17 -85 -19 -30 -6 -667 -169 -809 -207 -535 -145 -1194 -305
-1525 -370 -207 -41 -195 -39 -235 -46 -59 -11 -67 -12 -114 -19 l-46 -7 0
-524 c0 -492 1 -524 18 -525 9 0 55 -3 102 -7 189 -13 838 -4 928 12 9 2 58 7
107 10 50 4 101 9 115 11 14 2 52 7 85 10 33 3 71 8 85 10 14 2 61 9 105 15
44 6 91 13 105 15 39 6 272 45 298 50 12 3 34 7 50 10 21 4 267 57 373 80 9 2
34 8 55 14 l39 11 -35 -31 c-321 -284 -676 -481 -1104 -614 -79 -24 -155 -46
-168 -49 -12 -2 -87 -18 -164 -35 -78 -16 -166 -33 -195 -36 -30 -3 -61 -8
-69 -10 -8 -2 -40 -7 -70 -10 -30 -4 -68 -8 -85 -10 -29 -3 -181 -15 -275 -20
-25 -2 -102 -4 -173 -6 l-127 -2 0 -2939 0 -2938 303 -1 c419 -1 667 -7 1007
-24 333 -17 512 -28 640 -39 25 -2 88 -7 140 -11 52 -3 106 -8 120 -10 14 -2
59 -6 100 -10 70 -5 122 -10 210 -20 19 -2 64 -7 100 -10 36 -4 79 -8 95 -10
17 -1 59 -6 95 -10 36 -4 76 -8 90 -10 14 -2 50 -6 80 -10 56 -6 192 -23 245
-31 17 -2 83 -11 149 -19 65 -8 128 -17 140 -20 11 -2 44 -6 71 -9 28 -3 61
-8 74 -11 14 -2 59 -9 101 -15 42 -6 87 -13 101 -15 13 -3 56 -10 94 -15 39
-6 124 -20 190 -31 66 -12 129 -23 140 -24 11 -2 34 -6 50 -9 17 -3 48 -8 70
-11 22 -4 58 -10 80 -15 22 -5 56 -12 75 -15 39 -6 194 -35 225 -41 11 -2 34
-7 50 -9 17 -3 95 -19 175 -36 80 -16 154 -31 165 -33 11 -3 85 -18 165 -35
80 -17 154 -33 165 -36 233 -47 871 -206 1355 -336 110 -30 507 -145 638 -185
61 -19 165 -50 230 -69 64 -20 126 -39 137 -44 11 -4 162 -54 335 -111 173
-56 414 -138 535 -182 121 -44 225 -81 230 -82 6 -2 17 -6 25 -9 8 -3 78 -29
155 -57 77 -28 149 -55 160 -60 11 -5 103 -41 205 -80 102 -39 194 -75 205
-80 11 -5 110 -46 220 -91 265 -108 566 -238 743 -320 46 -22 86 -39 87 -39 4
0 76 -33 340 -158 126 -59 663 -329 800 -402 168 -89 478 -263 695 -390 55
-32 296 -180 350 -215 36 -23 112 -73 170 -110 58 -37 185 -124 284 -194 98
-69 188 -133 200 -141 55 -38 302 -233 401 -316 145 -121 235 -203 374 -344
l114 -115 -48 70 c-114 163 -372 483 -524 648 -25 28 -73 80 -106 116 -99 109
-563 570 -675 671 -57 52 -114 104 -125 115 -24 22 -83 74 -164 144 -30 25
-77 66 -105 90 -85 73 -98 84 -181 151 -44 35 -82 67 -85 70 -3 3 -21 17 -42
32 -20 15 -42 34 -50 41 -43 42 -511 391 -735 548 -165 116 -543 367 -670 445
-434 266 -823 489 -1152 661 -35 18 -70 38 -78 44 -7 6 -13 8 -13 4 0 -4 -6
-3 -12 3 -15 12 -349 179 -518 260 -665 315 -1279 567 -2000 818 -284 99 -781
261 -905 294 -16 5 -109 31 -205 59 -244 72 -877 240 -965 257 -11 2 -58 13
-105 25 -47 11 -92 22 -100 24 -8 2 -76 17 -150 34 -74 16 -146 32 -160 34
-14 3 -43 10 -65 15 -22 6 -53 13 -70 15 -16 3 -50 10 -75 16 -25 5 -60 13
-79 16 -19 3 -37 7 -40 9 -3 2 -23 7 -43 10 -21 3 -107 19 -190 35 -233 45
-315 61 -408 76 -47 8 -96 17 -110 20 -13 2 -40 7 -60 10 -20 3 -47 8 -60 10
-14 3 -54 10 -90 16 -36 5 -74 11 -85 13 -11 2 -101 16 -200 30 -99 15 -187
29 -195 31 -8 2 -40 6 -70 10 -30 3 -66 7 -80 10 -14 2 -63 9 -110 15 -47 6
-96 13 -110 15 -49 8 -106 15 -155 20 -27 3 -61 7 -75 9 -24 4 -95 13 -185 22
-22 2 -62 6 -90 10 -54 7 -67 9 -165 18 -36 4 -76 8 -90 10 -14 3 -59 7 -100
11 -41 4 -93 8 -115 10 -22 2 -69 7 -105 10 -36 3 -87 8 -115 10 -99 9 -162
15 -250 21 -49 3 -101 8 -115 9 -14 2 -38 4 -55 5 -29 1 -28 2 46 73 41 40
113 106 159 147 45 41 90 82 99 91 53 51 266 229 541 452 8 7 78 61 155 120
77 59 147 113 155 120 26 22 371 271 465 336 169 118 580 387 740 486 88 54
176 108 195 121 40 25 364 213 455 264 68 37 146 80 255 139 93 51 577 293
685 343 184 85 235 108 330 148 249 106 480 195 650 251 50 17 99 34 110 39
59 25 516 148 610 164 41 7 86 15 111 21 94 21 270 38 429 40 317 6 411 -18
749 -188 423 -215 618 -294 994 -406 229 -68 607 -165 732 -187 14 -3 32 -7
40 -9 8 -2 29 -7 45 -10 17 -2 39 -7 50 -9 11 -2 79 -16 150 -30 72 -14 153
-30 180 -36 28 -5 67 -12 89 -16 21 -3 47 -7 58 -9 25 -5 267 -46 293 -50 127
-19 212 -33 237 -41 9 -3 27 -7 40 -9 13 -3 59 -22 103 -44 118 -58 171 -114
269 -284 95 -164 157 -221 281 -258 162 -49 554 -15 771 67 301 113 539 344
687 666 84 182 138 428 104 470 -7 9 -102 83 -212 165 -182 136 -321 241 -479
363 -172 132 -724 576 -746 600 -3 3 -30 25 -60 50 -30 25 -57 47 -60 50 -3 3
-54 48 -115 100 -60 52 -128 111 -150 131 -22 20 -69 62 -105 94 -144 130
-408 389 -510 500 -210 229 -336 414 -385 564 -19 59 -100 209 -125 231 -3 3
-16 19 -29 35 -60 79 -174 187 -293 278 -276 210 -614 391 -1255 673 -120 53
-231 102 -248 109 -226 102 -294 134 -373 176 -136 72 -178 103 -309 225 -179
167 -304 294 -463 469 -79 88 -163 180 -186 205 -217 237 -257 280 -266 280
-5 0 -7 -4 -4 -8z"/>
</g>
</svg>
